<?xml version="1.0" encoding="UTF-8"?>

<svg xmlns="http://www.w3.org/2000/svg" xmlns:svg="http://www.w3.org/2000/svg" xmlns:xlink="http://www.w3.org/1999/xlink" width="908.57" height="908.57" viewBox="0 0 302.86 302.86" preserveAspectRatio="xMidYMid meet">
&#x9;<g id="Group 62">
&#x9;&#x9;<ellipse cx="151.43" cy="151.43" rx="144.73" ry="144.73" style="fill:none;stroke:#000000;stroke-linecap:round;stroke-linejoin:round;stroke-width:2;"></ellipse>
&#x9;&#x9;<ellipse cx="151.43" cy="151.43" rx="150.93" ry="150.93" style="fill:none;stroke:#000000;stroke-linecap:round;stroke-linejoin:round;stroke-width:1;"></ellipse>
&#x9;&#x9;<g transform="matrix(0.6342015862464905, 0, 0, 0.6342015862464905, 151.42807006835938, 181.7264862060547)">
&#x9;&#x9;&#x9;<path d="M-77.24,-5.11 L-58.85,-5.11 L-58.52,-84.79 L-101.6,-84.79 L-113.19,-106.91 L-113.19,-110.31 L101.93,-110.31 L113.44,-88.19 L113.44,-84.79 L73.76,-84.79 L74.43,103.49 L71.03,103.49 L43.94,85.84 L44.27,20.32 L-30.03,20.32 L-30.03,44.76 Q-30.03,53.29 -37.81,53.29 Q-42.95,53.29 -50.9,48.07 Q-58.85,42.77 -66.89,34.65 Q-74.84,26.45 -80.31,17.84 Q-85.69,9.14 -85.69,2.68 Q-85.69,-0.3 -83.7,-2.71 Q-81.63,-5.11 -77.24,-5.11 ZM45.27,-84.79 L-30.69,-84.79 L-30.36,-5.11 L44.61,-5.11 L45.27,-84.79 ZM71.42,-106.17 L43.26,-106.17 Q30.34,-123.48 20.89,-131.76 Q11.37,-140.13 3.91,-142.78 Q-3.54,-145.51 -10.33,-145.51 Q-18.53,-145.51 -26.82,-144.35 Q-35.1,-143.19 -44.63,-141.12 L-58.87,-167.3 L-58.54,-169.62 Q-43.3,-172.68 -35.6,-173.51 Q-27.98,-174.42 -23.59,-174.42 Q-10,-174.42 0.85,-168.29 Q11.7,-162.16 24.46,-148.08 Q37.13,-134 55.44,-110.31 L56.51,-110.31 Q42.27,-138.39 32.91,-155.87 Q23.54,-173.34 16.59,-182.54 Q9.63,-191.73 2.84,-194.88 Q-3.96,-198.11 -13.07,-198.11 Q-20.19,-198.11 -27.81,-197.12 Q-35.43,-196.12 -41.56,-194.71 L-55.81,-221.22 L-55.48,-223.62 Q-46.7,-224.95 -37.67,-225.94 Q-28.72,-227.02 -22.92,-227.02 Q-3.21,-227.02 10.87,-213.77 Q24.95,-200.51 38.87,-173.84 Q52.79,-147.25 71.42,-106.17 ZM85.59,-190.99 L109.36,-167.3 L85.59,-144.19 L62.23,-167.3 L85.59,-190.99 Z" fill="#000000"></path>
&#x9;&#x9;</g>
&#x9;</g>
</svg>