<?xml version="1.0" encoding="UTF-8"?>

<svg xmlns="http://www.w3.org/2000/svg" xmlns:svg="http://www.w3.org/2000/svg" xmlns:xlink="http://www.w3.org/1999/xlink" width="2142.94" height="287.38" viewBox="0 0 2142.94 287.38" preserveAspectRatio="xMidYMid meet">
&#x9;<path transform="matrix(1.5291861295700073, 0, 0, 1.5291861295700073, 1582.9041748046875, 140.7841796875)" d="M-287.63,72.07 L-280.72,71.42 Q-278.66,71.42 -277.58,72.93 Q-276.5,74.45 -276.5,75.69 Q-276.5,76.93 -276.99,78.12 Q-277.47,79.31 -278.66,80.28 Q-281.58,82.66 -286.28,82.66 Q-290.99,82.66 -294.28,82.45 Q-297.58,82.23 -300.5,81.91 Q-307.31,81.15 -312.61,81.15 Q-317.8,81.15 -322.66,81.69 Q-331.42,82.66 -336.39,82.66 Q-341.37,82.66 -343.31,81.96 Q-345.26,81.26 -346.45,80.28 Q-348.61,78.55 -348.61,76.5 Q-348.61,71.42 -344.39,71.42 L-337.37,72.07 Q-330.01,72.07 -327.53,66.23 Q-325.26,60.93 -325.26,46.98 L-325.26,-53.45 Q-325.26,-67.51 -327.04,-71.67 Q-328.83,-75.83 -331.2,-77.24 Q-333.58,-78.64 -337.37,-78.64 L-344.39,-77.99 Q-346.45,-77.99 -347.53,-79.45 Q-348.61,-80.91 -348.61,-82.21 Q-348.61,-83.51 -348.12,-84.64 Q-347.64,-85.78 -346.45,-86.86 Q-344.82,-89.2 -340.06,-89.2 Q-334.91,-88.8 -330.44,-88.56 Q-327.21,-88.51 -324.61,-88.37 L-318.77,-87.94 Q-315.88,-87.84 -312.53,-87.84 Q-309.18,-87.84 -306.34,-87.89 Q-303.42,-88.16 -300.5,-88.37 Q-291.74,-89.24 -287.74,-89.24 Q-283.74,-89.24 -281.8,-88.53 Q-279.85,-87.83 -278.66,-86.86 Q-276.5,-84.91 -276.5,-82.97 Q-276.5,-77.99 -280.72,-77.99 L-287.63,-78.64 Q-295.09,-78.64 -297.58,-72.8 Q-299.85,-67.51 -299.85,-53.45 L-299.85,-15.94 Q-290.88,-18.64 -281.26,-25.56 Q-264.39,-37.88 -243.74,-57.45 Q-229.69,-70.97 -229.69,-75.62 Q-229.69,-78.64 -234.23,-78.64 L-241.25,-78.97 Q-243.09,-78.97 -244.28,-80.43 Q-245.47,-81.89 -245.47,-83.51 Q-245.47,-89.13 -236.28,-89.13 L-212.5,-87.62 L-195.52,-89.13 Q-185.58,-89.13 -185.58,-83.51 Q-185.58,-80.37 -187.14,-79.13 Q-188.71,-77.89 -189.68,-77.89 L-196.82,-78.53 Q-202.55,-78.53 -216.06,-65.34 Q-261.9,-20.59 -285.26,-9.45 Q-263.2,-5.77 -249.58,4.06 Q-234.33,15.2 -222.44,38.88 Q-215.2,53.8 -206.55,62.77 Q-199.31,70.12 -193.9,70.12 L-187.35,70.88 Q-183.21,71.53 -184.39,74.01 Q-184.17,75.09 -184.17,76.12 Q-184.17,77.15 -185.2,78.39 Q-175.71,81.8 -177.44,82.67 Q-180.6,83.6 -199.25,82.45 Q-206.66,82.45 -214.87,79.69 Q-223.09,76.93 -230.33,71.2 Q-244.17,60.07 -256.17,35.74 Q-269.15,9.79 -287.42,3.96 Q-293.26,2.01 -299.85,1.36 L-299.85,46.98 Q-299.85,60.93 -298.07,65.09 Q-296.28,69.26 -293.9,70.66 Q-291.53,72.07 -287.63,72.07 ZM-162.98,81.15 L-178.44,82.77 Q-185.77,83.13 -187.99,80.97 Q-190.2,78.81 -187.41,76.5 Q-191.19,70.94 -186.97,70.94 L-177.9,72.18 Q-172.93,72.18 -169.9,68.39 Q-164.49,61.47 -155.2,41.47 L-97.25,-83.83 Q-94.11,-90.53 -92.87,-91.24 Q-91.63,-91.94 -90.6,-91.94 Q-89.57,-91.94 -88.44,-91.13 Q-87.3,-90.32 -85.9,-88.16 Q-83.08,-83.94 -78.33,-73.45 L-21.14,51.42 Q-15.62,63.42 -12.16,66.99 Q-7.08,72.18 -2.76,72.18 L2.65,71.42 Q4.81,71.42 5.78,72.99 Q6.76,74.55 6.76,76.61 Q6.76,78.66 4.54,80.72 Q2.32,82.77 -2.54,82.77 L-23.84,81.15 L-50.65,82.77 Q-58.54,82.77 -60.92,78.34 Q-61.46,77.15 -61.46,76.18 Q-61.46,71.53 -57.46,71.53 L-49.68,72.5 Q-43.08,72.5 -43.08,68.72 Q-43.08,64.17 -47.52,54.55 L-54.98,40.28 Q-56.49,37.15 -59.25,35.58 Q-62,34.01 -67.73,34.01 L-124.38,34.01 Q-135.52,34.01 -138.44,40.93 L-141.57,50.23 Q-147.3,63.74 -147.52,67.42 Q-147.52,72.18 -139.74,72.18 L-134.33,71.42 Q-132.49,71.42 -131.36,72.88 Q-130.22,74.34 -130.22,76.55 Q-130.22,78.77 -132.98,80.77 Q-135.74,82.77 -141.25,82.77 L-162.98,81.15 ZM-77.57,20.17 Q-65.46,20.17 -65.46,17.25 Q-65.46,16.61 -66.33,14.66 L-89.57,-41.99 Q-93.57,-52.15 -95.41,-52.15 Q-97.36,-52.15 -100.49,-44.69 L-125.57,12.61 Q-127.09,15.96 -127.09,17.25 Q-127.09,20.17 -115.09,20.17 L-77.57,20.17 ZM72.6,72.18 L79.52,71.53 Q81.46,71.53 82.6,73.04 Q83.73,74.55 83.73,75.8 Q83.73,77.04 83.25,78.23 Q82.76,79.42 81.57,80.39 Q78.65,82.77 73.95,82.77 Q69.25,82.77 65.95,82.5 Q62.65,82.23 59.73,81.96 Q56.81,81.69 53.89,81.42 Q50.98,81.15 47.57,81.15 Q44.16,81.15 41.25,81.36 L35.52,82.01 Q26.76,82.77 22.81,82.77 Q18.87,82.77 16.87,82.07 Q14.87,81.36 13.68,80.39 Q11.51,78.66 11.51,76.61 Q11.51,74.55 12.65,73.04 Q13.78,71.53 15.73,71.53 L22.65,72.18 Q30,72.18 32.6,66.34 Q34.97,61.15 34.97,47.09 L34.97,-52.05 Q34.97,-66.53 32.92,-70.91 Q30.87,-75.29 28.16,-76.91 Q25.46,-78.53 21.14,-78.53 L15.73,-77.89 Q13.78,-77.89 12.65,-79.29 Q11.51,-80.7 11.51,-82.1 Q11.51,-83.51 12,-84.64 Q12.49,-85.78 13.68,-86.75 Q16.6,-89.13 21.35,-89.13 Q26.11,-89.13 29.14,-88.91 Q32.16,-88.7 34.97,-88.37 Q41.35,-87.62 48,-87.62 Q54.65,-87.62 60.92,-88.16 Q92.38,-90.97 103.57,-90.97 Q114.76,-90.97 125.95,-86.91 Q137.14,-82.86 144.17,-76.26 Q157.68,-63.4 157.68,-43.61 Q157.68,-19.61 140.28,-6.1 Q124.6,6.01 99.95,6.01 L98.22,6.01 Q108.6,11.96 114.98,18.88 Q125.9,30.55 132.92,42.5 Q139.95,54.44 144.06,58.99 Q148.17,63.53 151.74,66.01 Q157.79,70.12 164.39,70.12 L170.55,68.72 Q173.68,68.93 174.44,70.45 Q175.31,72.5 175.31,74.45 Q175.31,76.39 174.28,77.69 Q173.25,78.99 171.2,80.07 Q162.66,84.39 144.38,81.47 Q132.06,79.53 122.76,71.2 Q113.25,62.88 104.87,49.58 Q96.49,36.28 91.68,27.96 Q86.87,19.63 84.17,16.12 Q81.46,12.61 78.11,10.33 Q71.52,5.9 60.27,5.9 L60.27,47.09 Q60.27,61.15 62.11,65.26 Q63.95,69.36 66.33,70.77 Q68.71,72.18 72.6,72.18 ZM79.63,-5.13 L91.41,-5.23 Q117.46,-5.23 126.87,-23.29 Q130.01,-29.45 130.01,-37.78 Q130.01,-46.1 127.52,-52.91 Q125.03,-59.72 119.52,-64.59 Q107.95,-75.07 84.71,-75.07 Q70.11,-75.07 66.27,-73.13 Q62.44,-71.18 61.35,-68.75 Q60.27,-66.32 60.27,-62.64 L60.27,-8.37 Q67.62,-5.13 79.63,-5.13 ZM196.5,81.15 L181.04,82.77 Q176.49,82.77 174.28,80.61 Q172.06,78.45 172.06,76.5 Q172.06,71.53 176.28,71.53 L181.58,72.18 Q186.55,72.18 189.58,68.39 Q194.98,61.47 204.28,41.47 L262.23,-83.83 Q265.36,-90.53 266.61,-91.24 Q267.85,-91.94 268.88,-91.94 Q269.9,-91.94 271.04,-91.13 Q272.17,-90.32 273.58,-88.16 Q276.39,-83.94 281.15,-73.45 L338.34,51.42 Q343.85,63.42 347.31,66.99 Q352.39,72.18 356.72,72.18 L362.12,71.42 Q364.29,71.42 365.26,72.99 Q366.23,74.55 366.23,76.61 Q366.23,78.66 364.02,80.72 Q361.8,82.77 356.93,82.77 L335.64,81.15 L308.82,82.77 Q300.93,82.77 298.55,78.34 Q298.01,77.15 298.01,76.18 Q298.01,71.53 302.01,71.53 L309.8,72.5 Q316.39,72.5 316.39,68.72 Q316.39,64.17 311.96,54.55 L304.5,40.28 Q302.99,37.15 300.23,35.58 Q297.47,34.01 291.74,34.01 L235.09,34.01 Q223.96,34.01 221.04,40.93 L217.9,50.23 Q212.17,63.74 211.96,67.42 Q211.96,72.18 219.74,72.18 L225.15,71.42 Q226.98,71.42 228.12,72.88 Q229.25,74.34 229.25,76.55 Q229.25,78.77 226.5,80.77 Q223.74,82.77 218.23,82.77 L196.5,81.15 ZM281.9,20.17 Q294.01,20.17 294.01,17.25 Q294.01,16.61 293.15,14.66 L269.9,-41.99 Q265.9,-52.15 264.07,-52.15 Q262.12,-52.15 258.98,-44.69 L233.9,12.61 Q232.39,15.96 232.39,17.25 Q232.39,20.17 244.39,20.17 L281.9,20.17 Z" style="fill:#000000;"></path>
&#x9;<path d="M741.31,264.73 Q748.93,268.15 798.21,281.19 Q821.85,287.58 852.21,287.38 Q895.86,280.81 918.77,251.7 Q937.32,228.21 939.86,195.18 Q939.86,178.42 932.04,165.49 Q924.22,152.55 910.17,144.17 L1010.41,144.17 Q1004.76,262.61 1010.41,264.98 C1016.06,267.36 1037.98,266.81 1043.6,264.07 Q1049.22,261.34 1043.17,32.02 L1092.32,32.02 L1063.06,4.37 Q1039.91,3.16 1016.2,3.74 Q1000.67,4.85 980.51,5.67 C974.31,5.92 969.3,21.28 975.28,26.27 C981.26,31.26 1004.72,12.52 1011.78,31.77 L1010.41,119.32 L904.77,119.32 Q917.71,110.94 926.08,97.82 Q934.55,84.7 934.55,69.43 Q934.55,41.98 916.22,21.03 Q897.88,0 856,0 Q833.48,0 813.46,7.07 Q793.45,14.15 779.4,24.85 Q780.52,31.65 781.63,38.72 Q782.75,45.79 783.59,52.68 Q799.97,40.86 817.28,33.97 Q834.69,27.08 854.04,27.08 Q878.06,27.08 889.32,39.93 Q900.58,52.68 900.58,70.18 Q900.58,91.12 885.32,105.45 Q870.05,119.69 838.04,119.69 L800.71,119.69 Q802.57,125.84 804.44,131.79 Q806.39,137.66 808.35,143.33 L835.43,143.33 Q876.2,143.33 891.27,157.48 Q904.39,171.69 908.39,192.84 Q910.35,216.42 897.6,235.09 Q883.07,254.12 862.83,257.38 Q853.29,261.57 808.57,251.97 Q736.31,232.85 725.94,208.73 C721.45,238.79 719.48,255.98 741.31,264.73 Z" fill-rule="evenodd" style="fill:#000000;"></path>
&#x9;<path transform="matrix(3.645362138748169, 0, 0, 3.645362138748169, 411.3277587890625, 140.7841796875)" d="M-90.43,34.72 L-98.78,34.04 Q-99.82,34.04 -100.73,34.13 L-102.59,34.4 Q-105.44,34.72 -106.87,34.72 Q-108.3,34.72 -109.14,34.43 Q-109.98,34.13 -110.43,33.72 Q-111.34,32.95 -111.34,32.11 Q-111.34,31.27 -110.89,30.64 Q-110.43,30 -109.57,30 L-106.67,30.28 Q-103.67,30.28 -102.72,27.83 Q-102.04,25.97 -102.04,19.75 L-102,-18.75 Q-102,-22.92 -102.84,-24.96 Q-103.67,-27 -104.88,-28.7 Q-106.08,-30.4 -107.55,-31.49 Q-109.03,-32.58 -110.21,-33.19 Q-111.38,-33.81 -112.11,-34.15 Q-112.84,-34.49 -112.84,-34.92 Q-112.84,-35.35 -112.7,-35.76 Q-112.56,-36.16 -112.25,-36.53 Q-111.57,-37.39 -109.98,-37.39 Q-108.39,-37.39 -106.92,-37.3 Q-105.44,-37.21 -103.9,-37.07 Q-100.23,-36.75 -96.19,-36.75 L-66.67,9.51 L-42.81,-36.8 Q-38.78,-36.8 -35.65,-37.07 Q-29.71,-37.52 -27.87,-37.52 Q-26.03,-37.52 -25.22,-37.23 Q-24.4,-36.94 -23.9,-36.53 Q-22.99,-35.71 -22.99,-34.87 Q-22.99,-34.03 -23.47,-33.4 Q-23.95,-32.76 -24.72,-32.76 L-27.66,-33.08 Q-30.61,-33.08 -31.52,-30.86 Q-32.43,-28.77 -32.43,-22.33 L-32.43,19.75 Q-32.43,25.7 -31.7,27.4 Q-30.98,29.1 -29.98,29.69 Q-28.98,30.28 -27.35,30.28 L-24.4,30 Q-23.58,30 -23.13,30.64 Q-22.68,31.27 -22.68,31.8 Q-22.68,32.32 -22.88,32.82 Q-23.08,33.32 -23.54,33.72 Q-25.08,35.04 -30.16,34.59 Q-31.57,34.49 -32.79,34.4 L-35.24,34.13 Q-36.42,34.04 -37.82,34.04 Q-39.23,34.04 -40.41,34.13 L-42.81,34.4 Q-46.49,34.72 -48.19,34.72 Q-49.89,34.72 -50.7,34.43 Q-51.52,34.13 -52.02,33.72 Q-52.88,32.95 -52.88,32.14 Q-52.88,30 -51.16,30 L-48.21,30.28 Q-45.13,30.28 -44.08,27.78 Q-43.13,25.56 -43.13,19.75 L-42.68,-23.24 L-66.62,22.48 Q-67.94,25.02 -69.34,25.02 Q-70.07,25.02 -70.68,24.22 Q-71.29,23.43 -73.29,20.34 L-78.23,12.45 Q-92.65,-11.49 -95.96,-16.53 L-95.96,19.75 Q-95.96,25.61 -95.22,27.35 Q-94.47,29.1 -93.47,29.69 Q-92.47,30.28 -90.84,30.28 L-87.94,30 Q-87.12,30 -86.65,30.64 Q-86.17,31.27 -86.17,31.8 Q-86.17,32.32 -86.37,32.82 Q-86.58,33.32 -87.08,33.72 Q-88.3,34.72 -90.43,34.72 ZM5.58,22.07 Q5.58,28.19 9.84,28.19 L19.32,28.19 Q30.52,28.19 36.15,23.16 Q37.78,21.66 39.23,20.07 L40.82,18.35 Q42.31,16.85 42.84,16.76 Q43.36,16.67 43.72,16.63 Q46.08,16.49 43.4,21.71 Q40.68,27.15 38.87,34.04 L1.04,34.04 Q-0.82,34.04 -2.18,34.13 L-7.44,34.59 Q-8.8,34.72 -10.32,34.72 Q-11.84,34.72 -12.68,34.43 Q-13.51,34.13 -13.97,33.72 Q-14.88,32.95 -14.88,32.11 Q-14.88,31.27 -14.42,30.62 Q-13.97,29.96 -13.11,29.96 L-10.2,30.28 Q-7.07,30.28 -5.99,27.51 Q-5.08,25.24 -5.08,19.07 L-5.08,-21.88 Q-5.08,-27.91 -5.92,-29.77 Q-6.76,-31.63 -7.91,-32.31 Q-9.07,-32.99 -10.88,-32.99 L-13.11,-32.72 Q-13.97,-32.72 -14.42,-33.31 Q-14.88,-33.9 -14.88,-34.49 Q-14.88,-35.08 -14.67,-35.55 Q-14.47,-36.03 -13.97,-36.44 Q-12.83,-37.43 -10.82,-37.43 Q-8.8,-37.43 -7.62,-37.34 L-5.26,-37.07 Q-1.95,-36.75 0.54,-36.75 L38.05,-36.75 Q38.37,-33.44 39.23,-29.77 L40.45,-24.64 Q40.77,-23.15 40.77,-22.51 Q40.77,-21.24 39.82,-21.24 Q39.23,-21.24 37.64,-23.01 L34.92,-26.01 Q32.38,-28.68 30.86,-29.38 Q29.34,-30.09 28.12,-30.36 Q25.85,-30.86 22.09,-30.86 L9.84,-30.86 Q7.39,-30.86 6.49,-29.81 Q5.58,-28.77 5.58,-26.82 L5.58,-7.5 Q5.58,-5.1 9.57,-5.1 L20.77,-5.1 Q23.95,-5.1 26.58,-8.27 Q27.48,-9.36 27.94,-10.43 Q28.39,-11.49 28.69,-11.86 Q28.98,-12.22 29.52,-12.22 Q30.98,-12.22 30.98,-9.68 L30.61,-2.38 L30.98,5.29 Q30.98,7.83 29.52,7.83 Q28.98,7.83 28.71,7.44 Q28.44,7.06 27.98,5.99 Q27.53,4.92 26.6,3.86 Q25.67,2.79 24.67,2.11 Q22.77,0.75 20.77,0.75 L9.52,0.75 Q7.62,0.75 6.6,1.57 Q5.58,2.39 5.58,3.56 L5.58,22.07 ZM116.06,-33.13 L112.59,-32.77 Q108.22,-28.87 107.47,-27.5 L86.3,3.34 L86.3,19.07 Q86.3,24.97 87.03,26.69 Q87.76,28.42 88.75,29.01 Q89.75,29.6 90.93,29.6 Q92.11,29.6 92.65,29.53 Q93.2,29.46 93.67,29.39 Q94.15,29.32 94.63,29.26 Q95.1,29.19 95.81,29.19 Q96.51,29.19 96.96,29.87 Q97.42,30.55 97.42,31.09 Q97.42,31.64 97.14,32.11 Q96.87,32.59 96.28,33.04 Q94.88,34.04 92.79,34.04 Q90.7,34.04 89.18,33.93 Q87.67,33.81 86.35,33.68 L83.72,33.5 Q82.45,33.36 80.95,33.36 Q79.46,33.36 78.19,33.5 L75.56,33.68 Q68.71,34.31 67.44,33.88 Q66.17,33.45 65.58,33.04 Q64.45,32.14 64.45,31.34 Q64.45,30.55 64.9,29.87 Q65.35,29.19 66.08,29.19 Q66.8,29.19 67.28,29.26 Q67.76,29.32 68.21,29.41 Q69.66,29.6 70.91,29.6 Q72.16,29.6 73.15,29.01 Q74.15,28.42 74.69,27.15 Q75.6,25.02 75.6,19.07 L75.6,3.61 L51.2,-31.4 Q50.07,-32.99 47.3,-32.99 L44.81,-32.67 Q43.95,-32.67 43.49,-33.47 Q43.04,-34.26 43.04,-35.08 Q43.04,-35.89 44.08,-36.64 Q45.13,-37.39 47.3,-37.39 L56.37,-36.75 L68.57,-37.39 Q73.24,-37.39 73.24,-34.98 Q73.24,-33.62 72.63,-33.17 Q72.02,-32.72 71.52,-32.72 L68.03,-33.08 Q65.13,-33.08 65.13,-31.45 Q65.13,-30.13 67.12,-26.82 L83.04,-3.47 L96.83,-24.92 Q99.96,-29.59 99.96,-31.36 Q100.33,-32.86 97.48,-32.86 L93.61,-32.72 Q92.84,-32.72 92.38,-33.51 Q91.93,-34.3 91.93,-35.12 Q91.93,-35.94 92.99,-36.66 Q94.06,-37.39 96.85,-37.39 Q99.64,-37.39 102.22,-37.07 Q104.81,-36.75 106.53,-36.75 L114.27,-37.81 Q118.04,-37.81 117.82,-35.44 Q117.82,-34.12 117.14,-33.62 Q116.46,-33.13 116.06,-33.13 Z" style="fill:#000000;"></path>
</svg>